<mxfile host="app.diagrams.net" agent="Mozilla/5.0 (Windows NT 10.0; Win64; x64; rv:130.0) Gecko/20100101 Firefox/130.0" version="24.7.13">
  <diagram name="Page-1" id="VY43RfDWQqQzOh5i8nwG">
    <mxGraphModel dx="1687" dy="3247" grid="0" gridSize="10" guides="1" tooltips="1" connect="1" arrows="1" fold="1" page="1" pageScale="1" pageWidth="1654" pageHeight="2336" math="0" shadow="0">
      <root>
        <mxCell id="0" />
        <mxCell id="1" parent="0" />
        <mxCell id="sKR4lGurP6SKgYdF-C8X-225" value="" style="edgeStyle=orthogonalEdgeStyle;rounded=0;orthogonalLoop=1;jettySize=auto;html=1;" edge="1" parent="1" source="sKR4lGurP6SKgYdF-C8X-223" target="sKR4lGurP6SKgYdF-C8X-224">
          <mxGeometry relative="1" as="geometry" />
        </mxCell>
        <mxCell id="sKR4lGurP6SKgYdF-C8X-229" value="" style="edgeStyle=orthogonalEdgeStyle;rounded=0;orthogonalLoop=1;jettySize=auto;html=1;" edge="1" parent="1" source="sKR4lGurP6SKgYdF-C8X-223" target="sKR4lGurP6SKgYdF-C8X-228">
          <mxGeometry relative="1" as="geometry" />
        </mxCell>
        <mxCell id="sKR4lGurP6SKgYdF-C8X-266" style="edgeStyle=orthogonalEdgeStyle;rounded=0;orthogonalLoop=1;jettySize=auto;html=1;exitX=0.25;exitY=0;exitDx=0;exitDy=0;entryX=0.5;entryY=1;entryDx=0;entryDy=0;" edge="1" parent="1" source="sKR4lGurP6SKgYdF-C8X-223" target="sKR4lGurP6SKgYdF-C8X-260">
          <mxGeometry relative="1" as="geometry" />
        </mxCell>
        <mxCell id="sKR4lGurP6SKgYdF-C8X-273" style="edgeStyle=orthogonalEdgeStyle;rounded=0;orthogonalLoop=1;jettySize=auto;html=1;exitX=0.5;exitY=0;exitDx=0;exitDy=0;entryX=0.5;entryY=1;entryDx=0;entryDy=0;" edge="1" parent="1" source="sKR4lGurP6SKgYdF-C8X-223" target="sKR4lGurP6SKgYdF-C8X-269">
          <mxGeometry relative="1" as="geometry" />
        </mxCell>
        <mxCell id="sKR4lGurP6SKgYdF-C8X-274" style="edgeStyle=orthogonalEdgeStyle;rounded=0;orthogonalLoop=1;jettySize=auto;html=1;exitX=0.5;exitY=0;exitDx=0;exitDy=0;entryX=0;entryY=1;entryDx=0;entryDy=0;" edge="1" parent="1" source="sKR4lGurP6SKgYdF-C8X-223" target="sKR4lGurP6SKgYdF-C8X-270">
          <mxGeometry relative="1" as="geometry" />
        </mxCell>
        <mxCell id="sKR4lGurP6SKgYdF-C8X-275" style="edgeStyle=orthogonalEdgeStyle;rounded=0;orthogonalLoop=1;jettySize=auto;html=1;exitX=0.5;exitY=0;exitDx=0;exitDy=0;entryX=0;entryY=0.5;entryDx=0;entryDy=0;" edge="1" parent="1" source="sKR4lGurP6SKgYdF-C8X-223" target="sKR4lGurP6SKgYdF-C8X-272">
          <mxGeometry relative="1" as="geometry" />
        </mxCell>
        <mxCell id="sKR4lGurP6SKgYdF-C8X-277" value="" style="edgeStyle=orthogonalEdgeStyle;rounded=0;orthogonalLoop=1;jettySize=auto;html=1;" edge="1" parent="1" source="sKR4lGurP6SKgYdF-C8X-223" target="sKR4lGurP6SKgYdF-C8X-276">
          <mxGeometry relative="1" as="geometry" />
        </mxCell>
        <mxCell id="sKR4lGurP6SKgYdF-C8X-223" value="Butik" style="whiteSpace=wrap;html=1;align=center;" vertex="1" parent="1">
          <mxGeometry x="777" y="169" width="100" height="40" as="geometry" />
        </mxCell>
        <mxCell id="sKR4lGurP6SKgYdF-C8X-227" value="" style="edgeStyle=orthogonalEdgeStyle;rounded=0;orthogonalLoop=1;jettySize=auto;html=1;" edge="1" parent="1" source="sKR4lGurP6SKgYdF-C8X-224" target="sKR4lGurP6SKgYdF-C8X-226">
          <mxGeometry relative="1" as="geometry" />
        </mxCell>
        <mxCell id="sKR4lGurP6SKgYdF-C8X-224" value="har" style="rhombus;whiteSpace=wrap;html=1;" vertex="1" parent="1">
          <mxGeometry x="607" y="149" width="80" height="80" as="geometry" />
        </mxCell>
        <mxCell id="sKR4lGurP6SKgYdF-C8X-244" style="edgeStyle=orthogonalEdgeStyle;rounded=0;orthogonalLoop=1;jettySize=auto;html=1;exitX=0.5;exitY=0;exitDx=0;exitDy=0;entryX=1;entryY=0.5;entryDx=0;entryDy=0;" edge="1" parent="1" source="sKR4lGurP6SKgYdF-C8X-226" target="sKR4lGurP6SKgYdF-C8X-241">
          <mxGeometry relative="1" as="geometry" />
        </mxCell>
        <mxCell id="sKR4lGurP6SKgYdF-C8X-245" style="edgeStyle=orthogonalEdgeStyle;rounded=0;orthogonalLoop=1;jettySize=auto;html=1;exitX=0.5;exitY=0;exitDx=0;exitDy=0;entryX=0.5;entryY=1;entryDx=0;entryDy=0;" edge="1" parent="1" source="sKR4lGurP6SKgYdF-C8X-226" target="sKR4lGurP6SKgYdF-C8X-238">
          <mxGeometry relative="1" as="geometry" />
        </mxCell>
        <mxCell id="sKR4lGurP6SKgYdF-C8X-246" style="edgeStyle=orthogonalEdgeStyle;rounded=0;orthogonalLoop=1;jettySize=auto;html=1;exitX=0.5;exitY=0;exitDx=0;exitDy=0;entryX=0.5;entryY=1;entryDx=0;entryDy=0;" edge="1" parent="1" source="sKR4lGurP6SKgYdF-C8X-226" target="sKR4lGurP6SKgYdF-C8X-239">
          <mxGeometry relative="1" as="geometry" />
        </mxCell>
        <mxCell id="sKR4lGurP6SKgYdF-C8X-247" style="edgeStyle=orthogonalEdgeStyle;rounded=0;orthogonalLoop=1;jettySize=auto;html=1;exitX=0.5;exitY=0;exitDx=0;exitDy=0;entryX=0.5;entryY=1;entryDx=0;entryDy=0;" edge="1" parent="1" source="sKR4lGurP6SKgYdF-C8X-226" target="sKR4lGurP6SKgYdF-C8X-240">
          <mxGeometry relative="1" as="geometry" />
        </mxCell>
        <mxCell id="sKR4lGurP6SKgYdF-C8X-226" value="Anställda" style="whiteSpace=wrap;html=1;" vertex="1" parent="1">
          <mxGeometry x="427" y="159" width="120" height="60" as="geometry" />
        </mxCell>
        <mxCell id="sKR4lGurP6SKgYdF-C8X-231" value="" style="edgeStyle=orthogonalEdgeStyle;rounded=0;orthogonalLoop=1;jettySize=auto;html=1;shape=link;" edge="1" parent="1" source="sKR4lGurP6SKgYdF-C8X-228" target="sKR4lGurP6SKgYdF-C8X-230">
          <mxGeometry relative="1" as="geometry" />
        </mxCell>
        <mxCell id="sKR4lGurP6SKgYdF-C8X-228" value="medlemskap" style="rhombus;whiteSpace=wrap;html=1;" vertex="1" parent="1">
          <mxGeometry x="967" y="149" width="80" height="80" as="geometry" />
        </mxCell>
        <mxCell id="sKR4lGurP6SKgYdF-C8X-252" style="edgeStyle=orthogonalEdgeStyle;rounded=0;orthogonalLoop=1;jettySize=auto;html=1;exitX=0.5;exitY=0;exitDx=0;exitDy=0;" edge="1" parent="1" source="sKR4lGurP6SKgYdF-C8X-230" target="sKR4lGurP6SKgYdF-C8X-251">
          <mxGeometry relative="1" as="geometry" />
        </mxCell>
        <mxCell id="sKR4lGurP6SKgYdF-C8X-253" style="edgeStyle=orthogonalEdgeStyle;rounded=0;orthogonalLoop=1;jettySize=auto;html=1;exitX=0.5;exitY=0;exitDx=0;exitDy=0;entryX=0.5;entryY=1;entryDx=0;entryDy=0;" edge="1" parent="1" source="sKR4lGurP6SKgYdF-C8X-230" target="sKR4lGurP6SKgYdF-C8X-248">
          <mxGeometry relative="1" as="geometry" />
        </mxCell>
        <mxCell id="sKR4lGurP6SKgYdF-C8X-254" style="edgeStyle=orthogonalEdgeStyle;rounded=0;orthogonalLoop=1;jettySize=auto;html=1;exitX=0.5;exitY=0;exitDx=0;exitDy=0;entryX=0.5;entryY=1;entryDx=0;entryDy=0;" edge="1" parent="1" source="sKR4lGurP6SKgYdF-C8X-230" target="sKR4lGurP6SKgYdF-C8X-249">
          <mxGeometry relative="1" as="geometry" />
        </mxCell>
        <mxCell id="sKR4lGurP6SKgYdF-C8X-255" style="edgeStyle=orthogonalEdgeStyle;rounded=0;orthogonalLoop=1;jettySize=auto;html=1;exitX=0.5;exitY=0;exitDx=0;exitDy=0;entryX=0.5;entryY=1;entryDx=0;entryDy=0;" edge="1" parent="1" source="sKR4lGurP6SKgYdF-C8X-230" target="sKR4lGurP6SKgYdF-C8X-250">
          <mxGeometry relative="1" as="geometry" />
        </mxCell>
        <mxCell id="sKR4lGurP6SKgYdF-C8X-230" value="Medlem" style="whiteSpace=wrap;html=1;" vertex="1" parent="1">
          <mxGeometry x="1107" y="159" width="120" height="60" as="geometry" />
        </mxCell>
        <mxCell id="sKR4lGurP6SKgYdF-C8X-238" value="Namn" style="ellipse;whiteSpace=wrap;html=1;align=center;" vertex="1" parent="1">
          <mxGeometry x="315" y="27" width="100" height="40" as="geometry" />
        </mxCell>
        <mxCell id="sKR4lGurP6SKgYdF-C8X-239" value="Lön" style="ellipse;whiteSpace=wrap;html=1;align=center;" vertex="1" parent="1">
          <mxGeometry x="415" y="9" width="100" height="40" as="geometry" />
        </mxCell>
        <mxCell id="sKR4lGurP6SKgYdF-C8X-240" value="Anställnings. Nr" style="ellipse;whiteSpace=wrap;html=1;align=center;" vertex="1" parent="1">
          <mxGeometry x="520" y="9" width="100" height="40" as="geometry" />
        </mxCell>
        <mxCell id="sKR4lGurP6SKgYdF-C8X-241" value="Roll" style="ellipse;shape=doubleEllipse;margin=3;whiteSpace=wrap;html=1;align=center;" vertex="1" parent="1">
          <mxGeometry x="241" y="64" width="100" height="40" as="geometry" />
        </mxCell>
        <mxCell id="sKR4lGurP6SKgYdF-C8X-248" value="Namn" style="ellipse;whiteSpace=wrap;html=1;align=center;" vertex="1" parent="1">
          <mxGeometry x="1030" y="19" width="100" height="40" as="geometry" />
        </mxCell>
        <mxCell id="sKR4lGurP6SKgYdF-C8X-249" value="Adress" style="ellipse;whiteSpace=wrap;html=1;align=center;" vertex="1" parent="1">
          <mxGeometry x="1134" y="5" width="100" height="40" as="geometry" />
        </mxCell>
        <mxCell id="sKR4lGurP6SKgYdF-C8X-250" value="&lt;div&gt;Startdatum&lt;/div&gt;&lt;div&gt;Medlemskap&lt;br&gt;&lt;/div&gt;" style="ellipse;whiteSpace=wrap;html=1;align=center;" vertex="1" parent="1">
          <mxGeometry x="1238" y="5" width="107" height="46" as="geometry" />
        </mxCell>
        <mxCell id="sKR4lGurP6SKgYdF-C8X-251" value="ID" style="ellipse;whiteSpace=wrap;html=1;align=center;fontStyle=4;" vertex="1" parent="1">
          <mxGeometry x="947" y="51" width="100" height="40" as="geometry" />
        </mxCell>
        <mxCell id="sKR4lGurP6SKgYdF-C8X-256" value="Gata" style="ellipse;whiteSpace=wrap;html=1;align=center;" vertex="1" parent="1">
          <mxGeometry x="618" y="59" width="46" height="36" as="geometry" />
        </mxCell>
        <mxCell id="sKR4lGurP6SKgYdF-C8X-257" value="Post. Nr" style="ellipse;whiteSpace=wrap;html=1;align=center;" vertex="1" parent="1">
          <mxGeometry x="645" y="19.5" width="71" height="39" as="geometry" />
        </mxCell>
        <mxCell id="sKR4lGurP6SKgYdF-C8X-258" value="Hus. Nr" style="ellipse;whiteSpace=wrap;html=1;align=center;" vertex="1" parent="1">
          <mxGeometry x="695" y="-16" width="65" height="38" as="geometry" />
        </mxCell>
        <mxCell id="sKR4lGurP6SKgYdF-C8X-259" value="Stad" style="ellipse;whiteSpace=wrap;html=1;align=center;" vertex="1" parent="1">
          <mxGeometry x="766" y="-24" width="51" height="39" as="geometry" />
        </mxCell>
        <mxCell id="sKR4lGurP6SKgYdF-C8X-261" style="edgeStyle=orthogonalEdgeStyle;rounded=0;orthogonalLoop=1;jettySize=auto;html=1;exitX=0;exitY=0;exitDx=0;exitDy=0;entryX=1;entryY=0.5;entryDx=0;entryDy=0;" edge="1" parent="1" source="sKR4lGurP6SKgYdF-C8X-260" target="sKR4lGurP6SKgYdF-C8X-256">
          <mxGeometry relative="1" as="geometry" />
        </mxCell>
        <mxCell id="sKR4lGurP6SKgYdF-C8X-263" style="edgeStyle=orthogonalEdgeStyle;rounded=0;orthogonalLoop=1;jettySize=auto;html=1;exitX=0;exitY=0;exitDx=0;exitDy=0;entryX=0.5;entryY=1;entryDx=0;entryDy=0;" edge="1" parent="1" source="sKR4lGurP6SKgYdF-C8X-260" target="sKR4lGurP6SKgYdF-C8X-258">
          <mxGeometry relative="1" as="geometry" />
        </mxCell>
        <mxCell id="sKR4lGurP6SKgYdF-C8X-264" style="edgeStyle=orthogonalEdgeStyle;rounded=0;orthogonalLoop=1;jettySize=auto;html=1;exitX=0.5;exitY=0;exitDx=0;exitDy=0;entryX=0.5;entryY=1;entryDx=0;entryDy=0;" edge="1" parent="1" source="sKR4lGurP6SKgYdF-C8X-260" target="sKR4lGurP6SKgYdF-C8X-259">
          <mxGeometry relative="1" as="geometry" />
        </mxCell>
        <mxCell id="sKR4lGurP6SKgYdF-C8X-265" style="edgeStyle=orthogonalEdgeStyle;rounded=0;orthogonalLoop=1;jettySize=auto;html=1;exitX=0.5;exitY=0;exitDx=0;exitDy=0;entryX=1;entryY=0.5;entryDx=0;entryDy=0;" edge="1" parent="1" source="sKR4lGurP6SKgYdF-C8X-260" target="sKR4lGurP6SKgYdF-C8X-257">
          <mxGeometry relative="1" as="geometry" />
        </mxCell>
        <mxCell id="sKR4lGurP6SKgYdF-C8X-260" value="Adress" style="ellipse;whiteSpace=wrap;html=1;align=center;" vertex="1" parent="1">
          <mxGeometry x="747" y="69" width="61" height="44" as="geometry" />
        </mxCell>
        <mxCell id="sKR4lGurP6SKgYdF-C8X-269" value="Namn" style="ellipse;whiteSpace=wrap;html=1;align=center;" vertex="1" parent="1">
          <mxGeometry x="808" y="58.5" width="54" height="36" as="geometry" />
        </mxCell>
        <mxCell id="sKR4lGurP6SKgYdF-C8X-270" value="&lt;u&gt;ID&lt;/u&gt;" style="ellipse;whiteSpace=wrap;html=1;align=center;" vertex="1" parent="1">
          <mxGeometry x="865" y="65" width="39" height="38" as="geometry" />
        </mxCell>
        <mxCell id="sKR4lGurP6SKgYdF-C8X-272" value="Telefon" style="ellipse;whiteSpace=wrap;html=1;align=center;" vertex="1" parent="1">
          <mxGeometry x="891" y="104" width="62" height="45" as="geometry" />
        </mxCell>
        <mxCell id="sKR4lGurP6SKgYdF-C8X-279" value="" style="edgeStyle=orthogonalEdgeStyle;rounded=0;orthogonalLoop=1;jettySize=auto;html=1;" edge="1" parent="1" source="sKR4lGurP6SKgYdF-C8X-276" target="sKR4lGurP6SKgYdF-C8X-278">
          <mxGeometry relative="1" as="geometry" />
        </mxCell>
        <mxCell id="sKR4lGurP6SKgYdF-C8X-276" value="erbjuder" style="rhombus;whiteSpace=wrap;html=1;" vertex="1" parent="1">
          <mxGeometry x="787" y="269" width="80" height="80" as="geometry" />
        </mxCell>
        <mxCell id="sKR4lGurP6SKgYdF-C8X-281" value="" style="edgeStyle=orthogonalEdgeStyle;rounded=0;orthogonalLoop=1;jettySize=auto;html=1;" edge="1" parent="1" source="sKR4lGurP6SKgYdF-C8X-278" target="sKR4lGurP6SKgYdF-C8X-280">
          <mxGeometry relative="1" as="geometry" />
        </mxCell>
        <mxCell id="sKR4lGurP6SKgYdF-C8X-329" style="edgeStyle=orthogonalEdgeStyle;rounded=0;orthogonalLoop=1;jettySize=auto;html=1;exitX=0.5;exitY=1;exitDx=0;exitDy=0;" edge="1" parent="1" source="sKR4lGurP6SKgYdF-C8X-278" target="sKR4lGurP6SKgYdF-C8X-293">
          <mxGeometry relative="1" as="geometry" />
        </mxCell>
        <mxCell id="sKR4lGurP6SKgYdF-C8X-278" value="Film" style="whiteSpace=wrap;html=1;" vertex="1" parent="1">
          <mxGeometry x="767" y="439" width="120" height="60" as="geometry" />
        </mxCell>
        <mxCell id="sKR4lGurP6SKgYdF-C8X-285" value="" style="edgeStyle=orthogonalEdgeStyle;rounded=0;orthogonalLoop=1;jettySize=auto;html=1;" edge="1" parent="1" source="sKR4lGurP6SKgYdF-C8X-280" target="sKR4lGurP6SKgYdF-C8X-284">
          <mxGeometry relative="1" as="geometry" />
        </mxCell>
        <mxCell id="sKR4lGurP6SKgYdF-C8X-352" style="edgeStyle=orthogonalEdgeStyle;rounded=0;orthogonalLoop=1;jettySize=auto;html=1;exitX=0;exitY=0.5;exitDx=0;exitDy=0;entryX=1;entryY=0.5;entryDx=0;entryDy=0;" edge="1" parent="1" source="sKR4lGurP6SKgYdF-C8X-280" target="sKR4lGurP6SKgYdF-C8X-351">
          <mxGeometry relative="1" as="geometry" />
        </mxCell>
        <mxCell id="sKR4lGurP6SKgYdF-C8X-280" value="har" style="rhombus;whiteSpace=wrap;html=1;" vertex="1" parent="1">
          <mxGeometry x="607" y="429" width="80" height="80" as="geometry" />
        </mxCell>
        <mxCell id="sKR4lGurP6SKgYdF-C8X-284" value="Prioritet" style="ellipse;whiteSpace=wrap;html=1;" vertex="1" parent="1">
          <mxGeometry x="615" y="307" width="64" height="42" as="geometry" />
        </mxCell>
        <mxCell id="sKR4lGurP6SKgYdF-C8X-286" value="Namn" style="ellipse;whiteSpace=wrap;html=1;" vertex="1" parent="1">
          <mxGeometry x="292" y="388" width="54" height="54" as="geometry" />
        </mxCell>
        <mxCell id="sKR4lGurP6SKgYdF-C8X-288" value="&lt;u&gt;ID&lt;/u&gt;" style="ellipse;whiteSpace=wrap;html=1;" vertex="1" parent="1">
          <mxGeometry x="269" y="447" width="54" height="54" as="geometry" />
        </mxCell>
        <mxCell id="sKR4lGurP6SKgYdF-C8X-290" value="Roll" style="ellipse;shape=doubleEllipse;margin=3;whiteSpace=wrap;html=1;align=center;" vertex="1" parent="1">
          <mxGeometry x="283" y="509" width="51" height="48" as="geometry" />
        </mxCell>
        <mxCell id="sKR4lGurP6SKgYdF-C8X-296" value="M" style="edgeStyle=orthogonalEdgeStyle;rounded=0;orthogonalLoop=1;jettySize=auto;html=1;" edge="1" parent="1" source="sKR4lGurP6SKgYdF-C8X-293" target="sKR4lGurP6SKgYdF-C8X-295">
          <mxGeometry relative="1" as="geometry" />
        </mxCell>
        <mxCell id="sKR4lGurP6SKgYdF-C8X-293" value="på" style="rhombus;whiteSpace=wrap;html=1;" vertex="1" parent="1">
          <mxGeometry x="1005" y="563" width="80" height="80" as="geometry" />
        </mxCell>
        <mxCell id="sKR4lGurP6SKgYdF-C8X-298" value="" style="edgeStyle=orthogonalEdgeStyle;rounded=0;orthogonalLoop=1;jettySize=auto;html=1;" edge="1" parent="1" source="sKR4lGurP6SKgYdF-C8X-295" target="sKR4lGurP6SKgYdF-C8X-297">
          <mxGeometry relative="1" as="geometry" />
        </mxCell>
        <mxCell id="sKR4lGurP6SKgYdF-C8X-295" value="Hylla" style="whiteSpace=wrap;html=1;" vertex="1" parent="1">
          <mxGeometry x="983" y="724" width="120" height="60" as="geometry" />
        </mxCell>
        <mxCell id="sKR4lGurP6SKgYdF-C8X-297" value="Namn" style="ellipse;whiteSpace=wrap;html=1;" vertex="1" parent="1">
          <mxGeometry x="1152" y="728.5" width="49" height="51" as="geometry" />
        </mxCell>
        <mxCell id="sKR4lGurP6SKgYdF-C8X-339" style="edgeStyle=orthogonalEdgeStyle;rounded=0;orthogonalLoop=1;jettySize=auto;html=1;exitX=0.5;exitY=0;exitDx=0;exitDy=0;entryX=0;entryY=1;entryDx=0;entryDy=0;" edge="1" parent="1" source="sKR4lGurP6SKgYdF-C8X-299" target="sKR4lGurP6SKgYdF-C8X-278">
          <mxGeometry relative="1" as="geometry" />
        </mxCell>
        <mxCell id="sKR4lGurP6SKgYdF-C8X-299" value="Film. Nr" style="ellipse;whiteSpace=wrap;html=1;" vertex="1" parent="1">
          <mxGeometry x="893" y="665" width="54" height="54" as="geometry" />
        </mxCell>
        <mxCell id="sKR4lGurP6SKgYdF-C8X-332" style="edgeStyle=orthogonalEdgeStyle;rounded=0;orthogonalLoop=1;jettySize=auto;html=1;exitX=1;exitY=0.5;exitDx=0;exitDy=0;entryX=0;entryY=1;entryDx=0;entryDy=0;" edge="1" parent="1" source="sKR4lGurP6SKgYdF-C8X-300" target="sKR4lGurP6SKgYdF-C8X-278">
          <mxGeometry relative="1" as="geometry" />
        </mxCell>
        <mxCell id="sKR4lGurP6SKgYdF-C8X-300" value="Filmlängd" style="ellipse;whiteSpace=wrap;html=1;" vertex="1" parent="1">
          <mxGeometry x="585" y="541" width="65" height="60" as="geometry" />
        </mxCell>
        <mxCell id="sKR4lGurP6SKgYdF-C8X-337" style="edgeStyle=orthogonalEdgeStyle;rounded=0;orthogonalLoop=1;jettySize=auto;html=1;exitX=0.5;exitY=0;exitDx=0;exitDy=0;entryX=0;entryY=1;entryDx=0;entryDy=0;" edge="1" parent="1" source="sKR4lGurP6SKgYdF-C8X-301" target="sKR4lGurP6SKgYdF-C8X-278">
          <mxGeometry relative="1" as="geometry" />
        </mxCell>
        <mxCell id="sKR4lGurP6SKgYdF-C8X-301" value="Titel" style="ellipse;whiteSpace=wrap;html=1;" vertex="1" parent="1">
          <mxGeometry x="837" y="678" width="54" height="54" as="geometry" />
        </mxCell>
        <mxCell id="sKR4lGurP6SKgYdF-C8X-333" style="edgeStyle=orthogonalEdgeStyle;rounded=0;orthogonalLoop=1;jettySize=auto;html=1;exitX=1;exitY=0;exitDx=0;exitDy=0;entryX=0;entryY=1;entryDx=0;entryDy=0;" edge="1" parent="1" source="sKR4lGurP6SKgYdF-C8X-302" target="sKR4lGurP6SKgYdF-C8X-278">
          <mxGeometry relative="1" as="geometry" />
        </mxCell>
        <mxCell id="sKR4lGurP6SKgYdF-C8X-302" value="Status" style="ellipse;whiteSpace=wrap;html=1;" vertex="1" parent="1">
          <mxGeometry x="622" y="601" width="54" height="54" as="geometry" />
        </mxCell>
        <mxCell id="sKR4lGurP6SKgYdF-C8X-334" style="edgeStyle=orthogonalEdgeStyle;rounded=0;orthogonalLoop=1;jettySize=auto;html=1;exitX=1;exitY=0;exitDx=0;exitDy=0;entryX=0;entryY=1;entryDx=0;entryDy=0;" edge="1" parent="1" source="sKR4lGurP6SKgYdF-C8X-303" target="sKR4lGurP6SKgYdF-C8X-278">
          <mxGeometry relative="1" as="geometry" />
        </mxCell>
        <mxCell id="sKR4lGurP6SKgYdF-C8X-303" value="Antal" style="ellipse;whiteSpace=wrap;html=1;" vertex="1" parent="1">
          <mxGeometry x="664" y="643" width="54" height="54" as="geometry" />
        </mxCell>
        <mxCell id="sKR4lGurP6SKgYdF-C8X-335" style="edgeStyle=orthogonalEdgeStyle;rounded=0;orthogonalLoop=1;jettySize=auto;html=1;exitX=0.5;exitY=0;exitDx=0;exitDy=0;entryX=0;entryY=1;entryDx=0;entryDy=0;" edge="1" parent="1" source="sKR4lGurP6SKgYdF-C8X-304" target="sKR4lGurP6SKgYdF-C8X-278">
          <mxGeometry relative="1" as="geometry" />
        </mxCell>
        <mxCell id="sKR4lGurP6SKgYdF-C8X-304" value="Hyrpris" style="ellipse;whiteSpace=wrap;html=1;" vertex="1" parent="1">
          <mxGeometry x="718" y="670" width="54" height="54" as="geometry" />
        </mxCell>
        <mxCell id="sKR4lGurP6SKgYdF-C8X-336" style="edgeStyle=orthogonalEdgeStyle;rounded=0;orthogonalLoop=1;jettySize=auto;html=1;exitX=0.5;exitY=0;exitDx=0;exitDy=0;entryX=0;entryY=1;entryDx=0;entryDy=0;" edge="1" parent="1" source="sKR4lGurP6SKgYdF-C8X-306" target="sKR4lGurP6SKgYdF-C8X-278">
          <mxGeometry relative="1" as="geometry" />
        </mxCell>
        <mxCell id="sKR4lGurP6SKgYdF-C8X-306" value="Genre" style="ellipse;shape=doubleEllipse;margin=3;whiteSpace=wrap;html=1;align=center;" vertex="1" parent="1">
          <mxGeometry x="777" y="681.5" width="58" height="47" as="geometry" />
        </mxCell>
        <mxCell id="sKR4lGurP6SKgYdF-C8X-326" style="edgeStyle=orthogonalEdgeStyle;rounded=0;orthogonalLoop=1;jettySize=auto;html=1;exitX=1;exitY=0;exitDx=0;exitDy=0;entryX=0.5;entryY=1;entryDx=0;entryDy=0;" edge="1" parent="1" source="sKR4lGurP6SKgYdF-C8X-322" target="sKR4lGurP6SKgYdF-C8X-230">
          <mxGeometry relative="1" as="geometry" />
        </mxCell>
        <mxCell id="sKR4lGurP6SKgYdF-C8X-327" style="edgeStyle=orthogonalEdgeStyle;rounded=0;orthogonalLoop=1;jettySize=auto;html=1;exitX=0;exitY=1;exitDx=0;exitDy=0;entryX=1;entryY=0.5;entryDx=0;entryDy=0;" edge="1" parent="1" source="sKR4lGurP6SKgYdF-C8X-322" target="sKR4lGurP6SKgYdF-C8X-278">
          <mxGeometry relative="1" as="geometry" />
        </mxCell>
        <mxCell id="sKR4lGurP6SKgYdF-C8X-349" style="edgeStyle=orthogonalEdgeStyle;rounded=0;orthogonalLoop=1;jettySize=auto;html=1;exitX=0;exitY=0;exitDx=0;exitDy=0;entryX=1;entryY=0.5;entryDx=0;entryDy=0;" edge="1" parent="1" source="sKR4lGurP6SKgYdF-C8X-322" target="sKR4lGurP6SKgYdF-C8X-340">
          <mxGeometry relative="1" as="geometry" />
        </mxCell>
        <mxCell id="sKR4lGurP6SKgYdF-C8X-350" style="edgeStyle=orthogonalEdgeStyle;rounded=0;orthogonalLoop=1;jettySize=auto;html=1;exitX=0;exitY=0;exitDx=0;exitDy=0;entryX=0.5;entryY=1;entryDx=0;entryDy=0;" edge="1" parent="1" source="sKR4lGurP6SKgYdF-C8X-322" target="sKR4lGurP6SKgYdF-C8X-341">
          <mxGeometry relative="1" as="geometry">
            <Array as="points">
              <mxPoint x="997" y="316" />
              <mxPoint x="997" y="281" />
              <mxPoint x="980" y="281" />
            </Array>
          </mxGeometry>
        </mxCell>
        <mxCell id="sKR4lGurP6SKgYdF-C8X-322" value="&lt;div&gt;Hyrning&lt;/div&gt;" style="shape=rhombus;perimeter=rhombusPerimeter;whiteSpace=wrap;html=1;align=center;" vertex="1" parent="1">
          <mxGeometry x="979" y="301" width="120" height="60" as="geometry" />
        </mxCell>
        <mxCell id="sKR4lGurP6SKgYdF-C8X-325" style="edgeStyle=orthogonalEdgeStyle;rounded=0;orthogonalLoop=1;jettySize=auto;html=1;exitX=1;exitY=0;exitDx=0;exitDy=0;entryX=0.5;entryY=1;entryDx=0;entryDy=0;" edge="1" parent="1" source="sKR4lGurP6SKgYdF-C8X-323" target="sKR4lGurP6SKgYdF-C8X-230">
          <mxGeometry relative="1" as="geometry">
            <Array as="points">
              <mxPoint x="1167" y="360" />
            </Array>
          </mxGeometry>
        </mxCell>
        <mxCell id="sKR4lGurP6SKgYdF-C8X-328" style="edgeStyle=orthogonalEdgeStyle;rounded=0;orthogonalLoop=1;jettySize=auto;html=1;exitX=0;exitY=1;exitDx=0;exitDy=0;entryX=1;entryY=0.5;entryDx=0;entryDy=0;" edge="1" parent="1" source="sKR4lGurP6SKgYdF-C8X-323" target="sKR4lGurP6SKgYdF-C8X-278">
          <mxGeometry relative="1" as="geometry" />
        </mxCell>
        <mxCell id="sKR4lGurP6SKgYdF-C8X-345" style="edgeStyle=orthogonalEdgeStyle;rounded=0;orthogonalLoop=1;jettySize=auto;html=1;exitX=1;exitY=1;exitDx=0;exitDy=0;" edge="1" parent="1" source="sKR4lGurP6SKgYdF-C8X-323" target="sKR4lGurP6SKgYdF-C8X-344">
          <mxGeometry relative="1" as="geometry" />
        </mxCell>
        <mxCell id="sKR4lGurP6SKgYdF-C8X-348" style="edgeStyle=orthogonalEdgeStyle;rounded=0;orthogonalLoop=1;jettySize=auto;html=1;exitX=1;exitY=1;exitDx=0;exitDy=0;entryX=0;entryY=0;entryDx=0;entryDy=0;" edge="1" parent="1" source="sKR4lGurP6SKgYdF-C8X-323" target="sKR4lGurP6SKgYdF-C8X-346">
          <mxGeometry relative="1" as="geometry">
            <Array as="points">
              <mxPoint x="1146" y="409" />
              <mxPoint x="1219" y="409" />
            </Array>
          </mxGeometry>
        </mxCell>
        <mxCell id="sKR4lGurP6SKgYdF-C8X-323" value="Reservering" style="shape=rhombus;perimeter=rhombusPerimeter;whiteSpace=wrap;html=1;align=center;" vertex="1" parent="1">
          <mxGeometry x="1056" y="345" width="120" height="60" as="geometry" />
        </mxCell>
        <mxCell id="sKR4lGurP6SKgYdF-C8X-340" value="Datum" style="ellipse;whiteSpace=wrap;html=1;align=center;" vertex="1" parent="1">
          <mxGeometry x="887" y="261" width="51" height="46" as="geometry" />
        </mxCell>
        <mxCell id="sKR4lGurP6SKgYdF-C8X-341" value="Återlämning" style="ellipse;whiteSpace=wrap;html=1;align=center;" vertex="1" parent="1">
          <mxGeometry x="935" y="229" width="90" height="46" as="geometry" />
        </mxCell>
        <mxCell id="sKR4lGurP6SKgYdF-C8X-344" value="Datum" style="ellipse;whiteSpace=wrap;html=1;align=center;" vertex="1" parent="1">
          <mxGeometry x="1156" y="453" width="51" height="46" as="geometry" />
        </mxCell>
        <mxCell id="sKR4lGurP6SKgYdF-C8X-346" value="Senast" style="ellipse;whiteSpace=wrap;html=1;align=center;" vertex="1" parent="1">
          <mxGeometry x="1211" y="422" width="51" height="46" as="geometry" />
        </mxCell>
        <mxCell id="sKR4lGurP6SKgYdF-C8X-353" style="edgeStyle=orthogonalEdgeStyle;rounded=0;orthogonalLoop=1;jettySize=auto;html=1;exitX=0;exitY=0.5;exitDx=0;exitDy=0;entryX=1;entryY=0.5;entryDx=0;entryDy=0;" edge="1" parent="1" source="sKR4lGurP6SKgYdF-C8X-351" target="sKR4lGurP6SKgYdF-C8X-286">
          <mxGeometry relative="1" as="geometry" />
        </mxCell>
        <mxCell id="sKR4lGurP6SKgYdF-C8X-354" style="edgeStyle=orthogonalEdgeStyle;rounded=0;orthogonalLoop=1;jettySize=auto;html=1;exitX=0;exitY=0.5;exitDx=0;exitDy=0;entryX=1;entryY=0.5;entryDx=0;entryDy=0;" edge="1" parent="1" source="sKR4lGurP6SKgYdF-C8X-351" target="sKR4lGurP6SKgYdF-C8X-290">
          <mxGeometry relative="1" as="geometry" />
        </mxCell>
        <mxCell id="sKR4lGurP6SKgYdF-C8X-355" style="edgeStyle=orthogonalEdgeStyle;rounded=0;orthogonalLoop=1;jettySize=auto;html=1;exitX=0;exitY=0.5;exitDx=0;exitDy=0;entryX=1;entryY=0.5;entryDx=0;entryDy=0;" edge="1" parent="1" source="sKR4lGurP6SKgYdF-C8X-351" target="sKR4lGurP6SKgYdF-C8X-288">
          <mxGeometry relative="1" as="geometry" />
        </mxCell>
        <mxCell id="sKR4lGurP6SKgYdF-C8X-351" value="Filmpersonal" style="shape=ext;margin=3;double=1;whiteSpace=wrap;html=1;align=center;" vertex="1" parent="1">
          <mxGeometry x="420" y="449" width="100" height="40" as="geometry" />
        </mxCell>
      </root>
    </mxGraphModel>
  </diagram>
</mxfile>
